<?xml version="1.0" encoding="utf-8"?>
<!-- Generator: Adobe Illustrator 16.0.0, SVG Export Plug-In . SVG Version: 6.00 Build 0)  -->
<!DOCTYPE svg PUBLIC "-//W3C//DTD SVG 1.1//EN" "http://www.w3.org/Graphics/SVG/1.1/DTD/svg11.dtd">
<svg version="1.1" id="Layer_1" xmlns="http://www.w3.org/2000/svg" xmlns:xlink="http://www.w3.org/1999/xlink" x="0px" y="0px"
	 width="100px" height="100px" viewBox="0 0 100 100" enable-background="new 0 0 100 100" xml:space="preserve">
<path d="M41.789,13.091c2.236,0,4.048-1.817,4.048-4.051c0-2.243-1.812-4.051-4.048-4.051c-2.246,0-4.053,1.808-4.053,4.051
	C37.736,11.274,39.543,13.091,41.789,13.091z"/>
<path d="M52.163,61.463h-5.56c-1.084,0-1.962,0.882-1.962,1.967v1.955c0,1.083,0.878,1.965,1.962,1.965h5.56
	c1.084,0,1.956-0.882,1.956-1.965V63.43C54.119,62.345,53.247,61.463,52.163,61.463z"/>
<path d="M65.777,71.729h-5.561c-1.089,0-1.969,0.879-1.969,1.961v1.961c0,1.08,0.88,1.966,1.969,1.966h5.561
	c1.078,0,1.957-0.886,1.957-1.966v-1.961C67.734,72.607,66.855,71.729,65.777,71.729z"/>
<path d="M65.777,81.988h-5.561c-1.089,0-1.969,0.883-1.969,1.966v1.963c0,1.081,0.88,1.958,1.969,1.958h5.561
	c1.078,0,1.957-0.877,1.957-1.958v-1.963C67.734,82.871,66.855,81.988,65.777,81.988z"/>
<path d="M52.163,81.988h-5.56c-1.084,0-1.962,0.883-1.962,1.966v1.963c0,1.081,0.878,1.958,1.962,1.958h5.56
	c1.084,0,1.956-0.877,1.956-1.958v-1.963C54.119,82.871,53.247,81.988,52.163,81.988z"/>
<path d="M52.163,71.729h-5.56c-1.084,0-1.962,0.879-1.962,1.961v1.961c0,1.08,0.878,1.966,1.962,1.966h5.56
	c1.084,0,1.956-0.886,1.956-1.966v-1.961C54.119,72.607,53.247,71.729,52.163,71.729z"/>
<path d="M65.777,61.463h-5.561c-1.089,0-1.969,0.882-1.969,1.967v1.955c0,1.083,0.88,1.965,1.969,1.965h5.561
	c1.078,0,1.957-0.882,1.957-1.965V63.43C67.734,62.345,66.855,61.463,65.777,61.463z"/>
<path d="M79.461,44.132H46.604c-1.084,0-1.962,0.883-1.962,1.958v8.668c0,1.09,0.878,1.967,1.962,1.967h32.857
	c1.083,0,1.963-0.877,1.963-1.967V46.09C81.424,45.015,80.544,44.132,79.461,44.132z"/>
<path d="M79.389,81.988h-5.555c-1.089,0-1.963,0.883-1.963,1.966v1.963c0,1.081,0.874,1.958,1.963,1.958h5.555
	c1.079,0,1.965-0.877,1.965-1.958v-1.963C81.354,82.871,80.468,81.988,79.389,81.988z"/>
<path d="M79.389,61.463h-5.555c-1.089,0-1.963,0.882-1.963,1.967v1.955c0,1.083,0.874,1.965,1.963,1.965h5.555
	c1.079,0,1.965-0.882,1.965-1.965V63.43C81.354,62.345,80.468,61.463,79.389,61.463z"/>
<path d="M79.389,71.729h-5.555c-1.089,0-1.963,0.879-1.963,1.961v1.961c0,1.08,0.874,1.966,1.963,1.966h5.555
	c1.079,0,1.965-0.886,1.965-1.966v-1.961C81.354,72.607,80.468,71.729,79.389,71.729z"/>
<path d="M83.674,33.477H76.07V16.133c0-6.212-5.031-11.247-11.243-11.247H52.79c-1.216-2.435-3.496-4.256-6.226-4.865
	c-0.017-0.006-0.033-0.01-0.05-0.01c-0.054-0.016-0.116-0.026-0.171-0.026c-0.361,0-0.656,0.293-0.656,0.647
	c0,0.284,0.178,0.523,0.427,0.614c2.885,1.555,4.853,4.609,4.853,8.118h7.639h0.68c5.098,0,9.218,4.126,9.218,9.223v2.899
	c0,1.535-1.245,2.791-2.786,2.791H18.455c-1.541,0-2.785-1.256-2.785-2.791v-2.899c0-5.096,4.119-9.223,9.217-9.223h7.645
	c0-1.626,0.422-3.152,1.156-4.479H19.111c-6.21,0-11.242,5.035-11.242,11.247v57.743c0,6.208,5.032,11.245,11.242,11.245h0.022
	h12.965v5.384v0.005c0,5.076,4.125,9.193,9.201,9.193h42.374c5.076,0,9.204-4.117,9.204-9.193v-0.005V42.677
	C92.878,37.599,88.75,33.477,83.674,33.477z M86.301,90.136c0,1.651-1.342,2.995-2.998,2.995H41.672
	c-1.651,0-2.996-1.344-2.996-2.995V43.094c0-1.65,1.345-3.001,2.996-3.001h41.631c1.656,0,2.998,1.351,2.998,3.001V90.136z"/>
</svg>
