<?xml version="1.0" encoding="utf-8"?>
<!-- Generator: Adobe Illustrator 16.0.0, SVG Export Plug-In . SVG Version: 6.00 Build 0)  -->
<!DOCTYPE svg PUBLIC "-//W3C//DTD SVG 1.1//EN" "http://www.w3.org/Graphics/SVG/1.1/DTD/svg11.dtd">
<svg version="1.1" id="Layer_1" xmlns="http://www.w3.org/2000/svg" xmlns:xlink="http://www.w3.org/1999/xlink" x="0px" y="0px"
	 width="98.004px" height="100px" viewBox="0 0 98.004 100" enable-background="new 0 0 98.004 100" xml:space="preserve">
<path d="M15.248,97.137l-1.357-13.664c0-1.257,1.602-0.144,3.623-0.144l0,0c2.005,0,3.626-1.113,3.626,0.144l0,0l-1.136,13.326
	C20.004,99.709,15.248,98.523,15.248,97.137z"/>
<path d="M9.431,52.654c-9.954-4.499-9.144-11.582-9.144-11.582c-1.256,2.5,1.416,24.309,11.79,24.309
	C16.719,65.381,20.619,57.68,9.431,52.654z"/>
<path d="M9.431,37.244c-9.954-4.485-9.144-11.568-9.144-11.568c-1.256,2.494,1.416,24.309,11.79,24.309
	C16.719,49.985,20.619,42.283,9.431,37.244z"/>
<path d="M9.431,22.297c-9.954-4.466-9.144-11.562-9.144-11.562c-1.256,2.5,1.416,24.296,11.79,24.296
	C16.719,35.031,20.619,27.349,9.431,22.297z"/>
<path d="M23.233,65.381c10.374,0,13.033-21.809,11.79-24.309c0,0,0.804,7.083-9.156,11.582
	C14.691,57.68,18.578,65.381,23.233,65.381z"/>
<path d="M9.431,68.434c-9.954-4.498-9.144-11.58-9.144-11.58c-1.256,2.5,1.416,24.309,11.79,24.309
	C16.719,81.162,20.619,73.46,9.431,68.434z"/>
<path d="M23.233,81.162c10.374,0,13.033-21.809,11.79-24.309c0,0,0.804,7.082-9.156,11.58C14.691,73.46,18.578,81.162,23.233,81.162
	z"/>
<path d="M23.233,49.985c10.374,0,13.033-21.815,11.79-24.309c0,0,0.804,7.083-9.156,11.568
	C14.691,42.283,18.578,49.985,23.233,49.985z"/>
<path d="M23.233,35.031c10.374,0,13.033-21.796,11.79-24.296c0,0,0.804,7.096-9.156,11.562
	C14.691,27.349,18.578,35.031,23.233,35.031z"/>
<path d="M18.376,23.462C29.381,23.462,17.771,0,17.771,0C16.371,2.207,7.374,23.462,18.376,23.462z"/>
<path d="M48.131,98.967l6.641-11.621l0,0c0.527-1.119-1.406-0.812-3.221-1.646l0,0c-1.842-0.854-2.824-2.539-3.349-1.4
	l-4.527,12.955C43.092,98.523,46.897,101.598,48.131,98.967z"/>
<path d="M57.133,54.47c-7.117-8.274-3.41-14.354-3.41-14.354c-2.189,1.738-8.948,22.648,0.449,27.017
	C58.383,69.092,65.168,63.753,57.133,54.47z"/>
<path d="M63.631,40.486c-7.121-8.255-3.418-14.335-3.418-14.335c-2.193,1.732-8.961,22.636,0.443,27.018
	C64.881,55.122,71.652,49.796,63.631,40.486z"/>
<path d="M69.926,26.945c-7.141-8.242-3.418-14.348-3.418-14.348c-2.188,1.738-8.95,22.636,0.457,27.017
	C71.176,41.561,77.954,36.242,69.926,26.945z"/>
<path d="M64.295,71.845c9.406,4.355,21.016-14.282,20.924-17.089c0,0-2.246,6.766-13.178,6.641
	C59.79,61.268,60.077,69.874,64.295,71.845z"/>
<path d="M50.495,68.78c-7.133-8.27-3.425-14.343-3.425-14.343c-2.188,1.731-8.948,22.637,0.456,26.99
	C51.75,83.389,58.515,78.062,50.495,68.78z"/>
<path d="M57.648,86.143c9.399,4.375,21.009-14.283,20.931-17.076c0,0-2.252,6.764-13.177,6.641
	C53.144,75.576,53.437,84.189,57.648,86.143z"/>
<path d="M70.793,57.869c9.399,4.367,21-14.296,20.922-17.083c0,0-2.252,6.758-13.176,6.641
	C66.274,47.296,66.575,55.922,70.793,57.869z"/>
<path d="M77.088,44.301c9.406,4.381,20.994-14.27,20.916-17.069c0,0-2.258,6.783-13.17,6.64
	C72.577,33.742,72.875,42.355,77.088,44.301z"/>
<path d="M77.549,31.763c9.975,4.635,9.337-21.536,9.337-21.536C84.686,11.66,67.577,27.127,77.549,31.763z"/>
</svg>
