<svg xmlns="http://www.w3.org/2000/svg" xmlns:xlink="http://www.w3.org/1999/xlink" version="1.1" id="Layer_1" x="0px" y="0px" width="100px" height="100.004px" viewBox="0 0 100 100.004" enable-background="new 0 0 100 100.004" xml:space="preserve">
<g>
	<g>
		<g>
			<g>
				<g>
					<g>
						<g>
							<path d="M67.538,23.159H63.96v-4.687h-27v4.687h-3.57v-8.657h34.149V23.159z"/>
						</g>
					</g>
				</g>
			</g>
		</g>
	</g>
	<g>
		<path d="M94.291,25.7H6.627c-3.304,0-5.983,2.68-5.983,5.982v48.622c0,3.301,2.679,5.981,5.983,5.981h87.664    c3.308,0,5.985-2.681,5.985-5.981V31.682C100.276,28.379,97.599,25.7,94.291,25.7z M96.996,65.337    c-0.83,1.879-3.016,4.06-5.604,4.06H9.528c-2.589,0-4.774-2.181-5.607-4.061c1.529,1.01,3.61,1.65,5.46,1.65h82.156    C93.39,66.986,95.47,66.346,96.996,65.337z M60.078,61.991H40.849v-5.53h19.229V61.991z"/>
	</g>
</g>
</svg>