<?xml version="1.0" encoding="utf-8"?>
<!-- Generator: Adobe Illustrator 16.0.0, SVG Export Plug-In . SVG Version: 6.00 Build 0)  -->
<!DOCTYPE svg PUBLIC "-//W3C//DTD SVG 1.1//EN" "http://www.w3.org/Graphics/SVG/1.1/DTD/svg11.dtd">
<svg version="1.1" id="Layer_1" xmlns="http://www.w3.org/2000/svg" xmlns:xlink="http://www.w3.org/1999/xlink" x="0px" y="0px"
	 width="100px" height="100px" viewBox="0 0 100 100" enable-background="new 0 0 100 100" xml:space="preserve">
<path d="M62.127,56.958h-5.52c0,0-4.859,0-4.859,3.834c0,4.015,4.727,4.015,4.727,4.015h2.133c0,0,1.555-4.671,3.521-6.855
	C62.127,57.344,62.127,56.958,62.127,56.958z"/>
<path d="M77.523,4.586c-9.185,0-18.592,1.242-27.69,2.444c-9.229,1.218-18.771,2.479-28.226,2.479c-5.895,0-11.28-0.484-16.38-1.475
	v39.111c5.071,1.046,10.448,1.556,16.38,1.556c8.488,0,17.163-1.062,25.611-2.171c0.693-0.091,1.389-0.182,2.08-0.273
	c4.042-0.534,8.152-1.065,12.28-1.504c0.218-0.022,0.434-0.052,0.648-0.075c0.004,0,0.008-0.001,0.01-0.001c0-5.207,0-8.863,0-9.825
	c-2.963,4.17-7.604,7.202-12.841,7.926c-8.947,1.238-16.205-5.335-16.205-14.311c0-8.922,7.257-16.86,16.205-18.098
	C58.346,9.131,65.6,15.691,65.6,24.667c0,0.596-0.037,1.186-0.101,1.771c1.644-1.657,4.094-2.916,7.817-2.916
	c11.086,0,11.086,10.763,11.086,10.763v0.572v9.181c0.004,0,0.007,0.001,0.011,0.001c1.565,0.112,3.099,0.265,4.606,0.452
	c0.104,0.013,0.211,0.022,0.315,0.036c1.548,0.205,3.074,0.438,4.567,0.728V31.778V6.142C88.834,5.096,83.458,4.586,77.523,4.586z"
	/>
<g>
	<path d="M62.174,46.736c-2.086,0.219-4.17,0.469-6.256,0.73c-0.389,0.049-0.779,0.095-1.17,0.145
		c-1.094,0.139-2.186,0.282-3.279,0.426c-0.141,0.018-0.281,0.036-0.422,0.054c-1.362,0.179-2.725,0.359-4.086,0.538
		c-0.329,0.042-0.657,0.084-0.985,0.126c-0.015,0.002-0.03,0.004-0.046,0.006c-0.916,0.119-1.831,0.236-2.748,0.351
		c-0.473,0.059-0.946,0.116-1.42,0.173c-0.798,0.097-1.595,0.192-2.393,0.284c-0.527,0.06-1.054,0.117-1.581,0.174
		c-0.745,0.081-1.49,0.159-2.235,0.232c-0.555,0.054-1.11,0.105-1.666,0.155c-0.722,0.065-1.442,0.125-2.163,0.183
		c-0.567,0.044-1.133,0.084-1.701,0.123c-0.712,0.048-1.425,0.089-2.138,0.126c-0.569,0.03-1.14,0.059-1.711,0.082
		c-0.709,0.026-1.418,0.045-2.127,0.061c-0.573,0.013-1.145,0.025-1.717,0.029c-0.712,0.005-1.424-0.004-2.137-0.015
		c-0.566-0.008-1.131-0.013-1.697-0.03c-0.728-0.023-1.456-0.064-2.183-0.104c-0.549-0.03-1.099-0.054-1.647-0.094
		c-0.76-0.056-1.521-0.137-2.281-0.213c-0.516-0.053-1.032-0.095-1.548-0.157c-0.84-0.102-1.682-0.234-2.521-0.365
		c-0.436-0.067-0.872-0.12-1.307-0.196c-1.274-0.222-2.549-0.475-3.824-0.77c0-14.426,0-28.853,0-43.279
		c30.921,7.154,61.842-8.166,92.764-1.012c0,9.242,0,18.484,0,27.727c0,5.184,0,10.368,0,15.552
		c-3.985-0.921-7.969-1.465-11.954-1.737c0,0,0.604,6.127,0.987,9.708c0.078,0.483-0.15,1.897-2.41,1.903
		c-1.834,0-2.252-0.906-2.35-1.325l-0.033-22.209c0,0,0.229-6.05-6.924-6.05c-7.32,0-6.964,6.294-6.964,6.294s0,22.193,0,25.809
		c-11.429,15.363-5.161,28.636-5.161,28.636V99.5H88.67V87.576c0,0,7.127-15.237,10.077-25.069c0.33-2.233-0.118-7.979-0.757-13.953
		V2.874l-1.582-0.366C90.568,1.157,84.393,0.5,77.523,0.5c-9.453,0-18.998,1.26-28.226,2.479C40.2,4.18,30.793,5.423,21.607,5.423
		C15.054,5.423,9.178,4.8,3.645,3.52L1.141,2.94v47.473l1.583,0.366c5.839,1.352,12.016,2.008,18.884,2.008
		c8.093,0,16.25-0.926,24.221-1.954c0.628,4.603,6.759,4.61,6.759,4.61c4.916,0,9.587,0,9.587,0v-6.65"/>
</g>
</svg>
