<?xml version="1.0" encoding="utf-8"?>
<!-- Generator: Adobe Illustrator 16.0.0, SVG Export Plug-In . SVG Version: 6.00 Build 0)  -->
<!DOCTYPE svg PUBLIC "-//W3C//DTD SVG 1.1//EN" "http://www.w3.org/Graphics/SVG/1.1/DTD/svg11.dtd">
<svg version="1.1" id="Layer_1" xmlns="http://www.w3.org/2000/svg" xmlns:xlink="http://www.w3.org/1999/xlink" x="0px" y="0px"
	 width="100px" height="100px" viewBox="0 0 100 100" enable-background="new 0 0 100 100" xml:space="preserve">
<g id="Layer_2_copy">
</g>
<g id="Layer_1_1_">
</g>
<g id="Layer_4">
	<path d="M61.109,46.59v7.669h5.475V13.946h-5.475v22.357c-1.558-3.365-4.593-5.903-8.271-6.785V13.946h-5.474V29.46
		c-3.603,0.781-6.614,3.144-8.272,6.324V13.946h-5.475V54.26h5.475V47.11c2.046,3.924,6.149,6.605,10.881,6.605
		C54.908,53.715,59.164,50.796,61.109,46.59z"/>
	<path d="M6.105,13.946v33.78c-3.528,1.705-5.961,5.318-5.961,9.498c0,4.181,2.434,7.792,5.961,9.498v19.333h5.474V13.946H6.105
		L6.105,13.946z"/>
	<path d="M99.855,57.224c0-4.16-2.41-7.756-5.91-9.473V13.946h-5.475v72.108h5.475v-19.36C97.445,64.98,99.855,61.383,99.855,57.224
		z"/>
	<g>
		<path d="M61.109,54.304h1.875c-0.271-0.016-0.549-0.025-0.828-0.025l-9.293-0.004v31.747h8.246V54.304z"/>
		<path d="M74.855,13.946v53.886c-0.233-5.566-3-10.894-8.271-12.806v30.995l13.745,0.033V13.946H74.855L74.855,13.946z"/>
	</g>
	<g>
		<path d="M25.344,66V13.944h-5.475v72.012l13.733,0.064V54.939C29.017,56.522,26.039,60.754,25.344,66z"/>
		<path d="M37.733,54.269c-0.318,0-0.629,0.014-0.938,0.035h2.281v31.718h8.312V54.272L37.733,54.269z"/>
	</g>
</g>
</svg>
