<svg xmlns="http://www.w3.org/2000/svg" xmlns:xlink="http://www.w3.org/1999/xlink" version="1.1" id="Layer_1" x="0px" y="0px" width="100px" height="100px" viewBox="0 0 100 100" enable-background="new 0 0 100 100" xml:space="preserve">
<path fill="none" d="M97.493,16.1c0.716-0.6,0.075-2.276-0.196-2.92c-0.107-0.255-0.258-0.451-0.415-0.594  c0.255-0.205,0.372-0.451,0.177-0.88L95.74,8.473c-0.073-0.273-0.879-3.24-1.369-4.4c-0.279-0.657-0.791-1.072-1.438-0.952  l-0.039-0.09c-0.389-0.914-1.324-2.07-2.434-1.519l-0.229,0.095l-0.071-0.043c-0.036-0.028-0.099-0.078-0.19-0.134  c-1.693-1.061-3.354,0.205-4.445,1.476c-0.354,0.412-0.637,0.793-0.772,0.982L50.684,18.057c-0.172,0.072-0.25,0.275-0.172,0.442  c0.074,0.16,0.139,0.314,0.194,0.467l-12.788,5.417c-0.319-0.363-0.771-0.814-1.042-0.703c0,0-12.695,5.16-20.481,8.337  c-0.271-0.282-0.584-0.508-0.993-0.604c-0.647-0.151-0.766,0.278-1.047-0.388c-0.18-0.424-0.608-0.486-0.964-0.303  c-0.38,0.127-0.631,0.479-0.452,0.903c0.281,0.664-0.104,0.45-0.445,1.015c-0.209,0.343-0.269,0.707-0.264,1.079  c-1.084,0.446-1.743,0.718-1.786,0.74c-0.754,0.393-2.169,1.399-2.2,3.423l-0.004,0.38c-0.15,0.62-0.693,1.152-1.274,1.371  c-1.659,0.623-2.107,0.573-3.591,0.273c-2.071-0.42-2.982,1.338-1.944,2.156c0.79,0.622,3.586,0.62,4.781,0.832  c1.978,0.349,2.167,0.538,2.955,2.428c0.32,0.77,0.533,1.452,0.546,1.447c0.164,0.581,0.292,1.186,0.34,1.777  c0.157,1.895-1.514,3.349-2.792,4.487c-2.488,1.104-6.4,2.516-4.921,6.178c0.311,0.771,0.841,0.982,1.646,0.844  c1.102-0.189,2.219-0.689,3.275-1.047c2.133-0.6,4.158-1.17,6.263,0.156c0.976,0.646,1.623,1.547,1.982,2.826  c0.892,3.793,0.336,8.682,0.265,9.107c-0.154,0.932,0.182,1.979,1.302,1.479l0.56-0.236c-0.093,0.111-0.194,0.246-0.246,0.383  c-0.149,0.393-0.466,2.104-0.732,4.047c-0.659,4.791-2.516,17.023,1.259,20.629c0.348,0.393,0.907,0.664,1.423,0.479l3.152-0.898  c0,0,17.813-5.473,19.849-6.104c1.846-0.572,1.87-3.586,1.646-5.166c-0.033-0.336-1.251-12.558-1.549-14.731  c-0.302-2.213-0.913-6.937-0.643-10.343c0.059-0.733,0.371-1.405,0.824-2.019l0.243-0.309c0.481-0.566,1.078-1.066,1.686-1.498  c1.326-0.933,2.621-1.445,2.621-1.445l7.898-3.344c5.865-2.483,6.045-6.457,5.107-8.83c-1.015-2.569-2.322-5.349-0.729-7.596  c0.021-0.021,0.037-0.046,0.057-0.066c0.343-0.453,0.859-0.825,1.323-1.021L78.785,26.9c0.496-0.203,0.719-0.709,0.744-1.225  l0.684-0.29l15.396-6.519c1.132-0.372,2.195-1.341,1.902-2.688L97.493,16.1z M55.85,49.162c-0.672,0.368-2.011,0.936-6.121,2.676  c-2.033-0.674-3.762-2.166-4.65-4.263c-0.824-1.947-0.777-4.044-0.016-5.88l5.188-2.196l0.726-0.274c0,0,0.282-0.105,0.737-0.173  c3.115-0.472,5.183,1.737,6.289,4.521C59.068,46.255,56.982,48.682,55.85,49.162z"/>
<g>
	<path fill="#000000" d="M14.416,57.371c-0.374-0.238-1.481-0.619-1.885-0.549c-1.587,0.281-4.852,2.307-5.836-0.121   c-0.313-0.771-0.296-1.84-0.063-2.67l-1.515,0.682c-2.224,1-2.816,2.643-2.167,4.25c0.175,0.43,0.364,0.539,0.924,0.443   c1.071-0.188,2.168-0.682,3.194-1.029c2.339-0.65,4.5-1.221,6.809,0.232c1.122,0.74,1.865,1.787,2.265,3.209   c0.926,3.92,0.354,8.926,0.279,9.385c-0.052,0.311-0.173,1.041,0.389,0.771l1.655-0.701c0-2.369-0.012-4.287-0.045-5.352   C18.284,61.584,16.979,59.02,14.416,57.371z"/>
	<path fill="#000000" d="M18.461,72.428c-0.202,0.188-0.416,0.404-0.463,0.527c-0.609,1.592-1.451,10.209-1.553,11.604   c-0.258,3.529-0.296,7.295,0.393,9.424c0.524,1.619,1.048,2.441,1.449,2.863c-0.063-0.297-0.062-0.652-0.031-1.039   C18.262,95.363,18.441,81.398,18.461,72.428z"/>
	<path fill="#000000" d="M19.269,95.377c0.008-0.586,0.32-24.84,0.164-29.885c-0.135-4.342-1.411-7.004-3.971-8.648   c-1.929-1.24-3.781-1.887-7.691-1.17c-0.235,0.041-0.458,0.041-0.647-0.012c0.021,0.264,0.075,0.535,0.178,0.793   c0.374,0.922,1.196,0.854,1.997,0.666c0.787-0.189,2.438-0.824,3.118-0.945c0.65-0.113,1.934,0.377,2.354,0.643   c2.802,1.803,4.165,4.605,4.306,9.082c0.158,5.111-0.164,29.938-0.164,29.938c-0.057,0.672-0.065,1.377,0.668,1.279l0.098-0.025   C19.279,96.705,19.217,96.059,19.269,95.377z"/>
	<path fill="#000000" d="M96.289,12.191c0.062-0.039,0.135-0.084,0.199-0.132c-0.004-0.016-0.834-2.056-1.201-2.957   c-0.059,0.076-0.146,0.136-0.225,0.183l1.104,2.604C96.204,11.98,96.245,12.082,96.289,12.191z"/>
	<path fill="#000000" d="M85.969,3.382l3.529-1.469C88.209,1.222,86.896,2.289,85.969,3.382z"/>
	<path fill="#000000" d="M41.813,25.756l6.764-2.864c1.857-0.786,2.583-1.855,2.308-3.29l-12.499,5.294   C39.27,25.704,40.653,26.199,41.813,25.756z"/>
	<path fill="#000000" d="M93.768,4.328c-0.125-0.29-0.314-0.527-0.562-0.566l1.589,3.749C94.5,6.485,94.07,5.049,93.768,4.328z"/>
	<path fill="#000000" d="M1.689,41.02c-0.115,0.713,0.872,0.869,1.53,0.916C2.531,41.738,1.936,41.45,1.689,41.02z"/>
	<path fill="#000000" d="M5.226,41.613l-0.354-0.834c-0.424,0.007-0.83-0.034-1.191-0.119c-0.337-0.08-0.995-0.188-1.465-0.082   C2.223,41.295,5.142,41.603,5.226,41.613z"/>
	<path fill="#000000" d="M15.948,32.489c-1.028-1.069-1.544,0.295-2.182-1.21c-0.015,0.001-0.053,0.015-0.186,0.071   c-0.021,0.008-0.026,0.007-0.037,0.017c0.17,0.402,0.299,0.866-0.086,1.205c-0.16,0.14-0.287,0.215-0.403,0.406   c-0.094,0.156-0.184,0.4-0.173,0.785c0.527-0.099,1.086-0.266,1.647-0.503C15.053,33.038,15.531,32.775,15.948,32.489z"/>
	<path fill="#000000" d="M9.499,40.379c0.1,2.244,0.788,4.43,1.577,6.52l7.206-3.053l-3.542-8.363l0.711,0.221l3.354,7.92   l0.247-0.104l-3.542-8.362l0.711,0.219l3.354,7.921l0.247-0.104l-3.542-8.361l0.712,0.219l3.354,7.92l0.246-0.104l-3.542-8.364   l0.711,0.221l3.355,7.921l0.247-0.104l-3.541-8.364l0.71,0.22l3.354,7.921l0.247-0.104l-3.541-8.362l0.712,0.22l3.354,7.921   l0.247-0.105l-3.542-8.362l0.711,0.22l3.355,7.92l0.246-0.104l-3.541-8.362l0.71,0.221l3.354,7.921l0.247-0.106l-3.54-8.363   l0.711,0.22l3.354,7.921l0.248-0.106l-3.542-8.36l0.711,0.22l3.355,7.918l0.247-0.103l-3.542-8.364l0.712,0.221l3.354,7.919   l0.246-0.104l-3.54-8.362l0.711,0.221l3.353,7.919l0.248-0.105l-3.541-8.361l0.711,0.221l3.354,7.919l0.247-0.104l-3.541-8.362   l0.711,0.221l3.354,7.92l0.248-0.106l-3.542-8.361l0.711,0.221l3.353,7.918l0.247-0.104l-3.54-8.362l0.711,0.221l3.354,7.917   l0.247-0.103l-3.541-8.361l0.711,0.22l3.354,7.919l0.247-0.104l-3.542-8.361l0.712,0.22l3.354,7.919l0.246-0.105l-3.541-8.36   l0.712,0.22l3.354,7.918l44.622-18.906c0.381-0.647,2.614-3.938,10.5-7.276l6.776-2.87L92.29,3.291   c-0.228-0.531-0.812-1.533-1.562-1.173L51.238,18.54c0.9,2.286,0.062,3.915-2.405,4.96l-6.776,2.869c0,0-0.151,0.062-0.407,0.115   c-1.426,0.298-2.816-0.199-3.854-1.237l-0.875-0.874c-1.637,0.665-12.866,5.231-20.084,8.175l0.05,0.067   c-0.695,0.527-1.29,0.909-2.103,1.253c-0.849,0.359-1.571,0.525-2.476,0.649l-0.018-0.115c-1.245,0.494-2.541,0.97-3.103,2.152   c0.005,0.013,0.008,0.024,0.012,0.037C9.571,38.08,9.43,38.846,9.499,40.379z M52.539,20.208L91.816,3.951   c0.404-0.167,0.654,0.439,0.25,0.607L52.789,20.813C52.385,20.983,52.133,20.375,52.539,20.208z"/>
	<path fill="#000000" d="M8.472,42.934c0.253,0.203,0.504,0.549,0.739,0.962c-0.643-2.053-0.872-3.265-0.941-4.409   c-0.655,0.697-1.685,1.103-2.707,1.24l0.634,1.499C7.148,42.379,8.063,42.607,8.472,42.934z"/>
	<path fill="#000000" d="M43.954,50.525c0.004-0.004,1.855,2.371,4.814,1.645c-1.874-0.824-3.44-2.324-4.293-4.339   c-0.759-1.793-0.837-3.704-0.341-5.457C42.008,44.614,42.353,47.955,43.954,50.525z"/>
	<path fill="#000000" d="M58.451,36.026l-5.477,2.32c2.691,0.205,4.577,2.323,5.637,4.982c1.231,3.103-1.119,5.835-2.479,6.424   c-0.688,0.374-2.057,0.954-6.277,2.743c-1.567,0.663-3.33,0.543-4.75-0.248c0.101,0.196,0.18,0.403,0.224,0.617   c0.196,0.913-0.273,2.122-0.886,3.196c0.833-0.562,1.708-1.009,2.474-1.312l7.889-3.341c5.529-2.343,5.562-5.935,4.754-7.982   C58.559,40.891,57.398,38.333,58.451,36.026z"/>
	<path fill="#000000" d="M38.036,44.919c-0.206,2.764,0.859,4.19,3.099,5.214c-0.729-3.551-0.552-6.706,1.51-9.834   C40.617,41.049,38.202,42.665,38.036,44.919z"/>
	<path fill="#000000" d="M38.698,58.562c0.335-0.557,2.169-2.98,2.942-3.891c0.577-0.621,1.016-1.254,1.323-1.592   c-0.487-0.869-1.178-1.566-1.895-2.256c-0.718-0.379-1.388-0.634-2.023-1.195c-0.982-0.87-1.846-2.319-1.665-4.761   c0.216-2.921,3.443-4.795,5.945-5.478l11.978-5.073c0.729-0.309,0.918-1.133,1.241-1.772c0.724-1.425,1.909-2.231,3.388-2.768   l17.976-7.611c-0.132-0.361-0.267-0.717-0.402-1.072L77.352,20.7l-0.343-0.139l-0.475-0.192l-0.599-0.241L10.616,47.807   c0.333,2.051-0.273,3.205-2.127,4.982c-0.17,0.163-0.329,0.311-0.462,0.436c-0.244,0.303-0.692,0.901-0.833,1.33   c-0.016,0.086-0.031,0.176-0.043,0.272c0.016,0.173,0.158,0.263,0.501,0.2c4.068-0.746,6.089-0.07,8.164,1.264   c2.805,1.803,4.133,4.709,4.271,9.182c0.16,5.109-0.163,29.938-0.163,29.938c-0.057,0.662-0.024,1.381,0.741,1.397l1.638-0.468   c0.311-0.098,13.037-4.004,18.038-5.543c-0.179-2.071-1.588-18.221-2.234-24.647C37.65,61.588,37.973,59.756,38.698,58.562z    M47.638,33.74c0.632-0.269,1.363,0.029,1.631,0.662c0.269,0.632-0.027,1.361-0.661,1.631c-0.633,0.269-1.365-0.027-1.632-0.661   C46.708,34.739,47.004,34.007,47.638,33.74z M10.596,54.439c-0.471,0.201-1.016-0.021-1.215-0.491   c-0.199-0.47,0.021-1.015,0.492-1.214c0.472-0.199,1.015,0.02,1.216,0.494C11.287,53.697,11.067,54.242,10.596,54.439z    M14.191,49.904c-0.471,0.2-1.015-0.02-1.215-0.492c-0.2-0.472,0.021-1.016,0.492-1.215c0.472-0.2,1.015,0.021,1.215,0.493   C14.881,49.161,14.662,49.704,14.191,49.904z M38.219,51.572c0.229-0.289,0.532-0.527,0.895-0.68   c1.155-0.492,2.485,0.049,2.974,1.203c0.489,1.15-0.05,2.483-1.204,2.973c-0.786,0.334-1.653,0.188-2.282-0.303   c-1.242,0.148-2.896,0.229-3.033-1.365c-0.078-0.885,0.605-1.648,1.497-1.729L38.219,51.572z M19.725,50.938   c-0.351,0.149-0.757-0.016-0.907-0.364c-0.148-0.354,0.017-0.758,0.368-0.907c0.352-0.149,0.757,0.016,0.906,0.367   C20.24,50.385,20.076,50.789,19.725,50.938z M38.878,91.189c-0.594,0.209-12.679,3.896-13.077,4.02   c-0.699,0.256-1.643,0.221-1.965-0.619c-1.051-1.746-0.905-1.596-2.846-2.316c-0.181-0.064-0.347-0.145-0.493-0.277   c-0.306-0.361-0.354-0.877-0.295-1.328l0.281-30.127L20.46,46.545c-0.061-0.633,0.466-1.282,0.905-1.654   c3.264-2.355,7.247-3.528,11.272-3.231c0.955,0.071,2.647,0.073,2.9,1.3c0.041,0.198,0.059,0.424,0.084,0.661   c0.269,2.628,0.466,5.293,0.694,7.917c-0.691,0.435-1.151,1.022-1.074,1.894c0.082,0.957,0.549,1.332,1.382,1.625   c1.012,11.598,2.03,23.223,3.047,34.823C39.778,90.463,39.456,90.988,38.878,91.189z"/>
	<path fill="#000000" d="M78.123,22.789l-17.952,7.602c-3.853,1.364-2.731,3.737-4.61,4.533l-11.861,5.023   c-2.601,3.433-2.691,6.833-1.759,10.786c0.707,0.683,1.554,1.748,1.667,2.194c0.053,0.202-0.032,0.392-0.122,0.567   c-0.479,0.516-0.875,1.104-1.357,1.621c-0.771,0.91-2.56,3.279-2.866,3.787c-0.604,0.992-0.957,2.625-0.499,7.182   c0.633,6.303,1.998,21.943,2.222,24.516l1.157-0.355c1.701-0.529,1.214-4.285,1.189-4.457c0,0-1.248-12.521-1.549-14.727   c-0.3-2.201-0.923-6.996-0.646-10.48c0.075-0.943,0.514-1.822,1.153-2.604l0.348-0.453c0,0,0.612-0.735,1.175-1.687   c0.695-1.174,1.325-2.399,0.501-3.642c-1.154-1.737-1.778-2.49-2.231-4.759c-0.447-2.234,0.456-4.788,2.289-6.159l14.648-6.205   l0.035-0.015c0.448-0.535,1.096-0.982,1.693-1.236l17.773-7.526c0,0,0.023-0.013,0.061-0.039c0.339-0.242,0.346-0.676,0.243-1.05   C78.641,24.391,78.396,23.585,78.123,22.789z"/>
	<path fill="#000000" d="M96.868,16.314c-0.36-1.654-0.951-3.328-1.308-4.17l-1.135-2.676l-6.367,2.699   c-2.529,1.07-8.766,4.163-10.285,7.185l-0.961,0.407c0.496,0.193,1.039,0.43,1.097,0.573c0,0,0.087,0.216,0.208,0.527   c0.52,1.343,1.001,2.727,1.339,4.131l15.909-6.738l0.031-0.011C95.486,18.213,97.16,17.656,96.868,16.314z"/>
	<path fill="#000000" d="M37.285,54.193l0.758-0.063c-0.049-0.086-0.093-0.173-0.132-0.265c-0.224-0.53-0.232-1.096-0.063-1.602   l-0.724,0.062c-0.554,0.048-0.944,0.515-0.901,1.021C36.266,53.85,36.73,54.242,37.285,54.193z"/>
	<path fill="#000000" d="M28.613,50.382c0.824-0.349,1.258-1.232,1.068-2.076l-3.302,1.399   C26.854,50.426,27.791,50.73,28.613,50.382z"/>
	<path fill="#000000" d="M27.192,47.024c-0.824,0.349-1.258,1.232-1.068,2.075l3.302-1.398   C28.953,46.979,28.015,46.676,27.192,47.024z"/>
	<path fill="#000000" d="M38.873,54.133c0.45,0.44,1.139,0.594,1.755,0.332c0.82-0.349,1.203-1.294,0.856-2.111   c-0.348-0.82-1.293-1.205-2.114-0.854c-0.26,0.108-0.477,0.276-0.639,0.485c-0.146,0.236-0.267,0.47-0.321,0.723   c-0.05,0.292-0.021,0.604,0.101,0.896C38.601,53.812,38.725,53.988,38.873,54.133z"/>
	<path fill="#000000" d="M27.991,88.707c0.474,0.723,1.411,1.025,2.235,0.676c0.824-0.348,1.257-1.23,1.068-2.072L27.991,88.707z"/>
	<path fill="#000000" d="M35.628,51.203c-0.38-4.354-0.64-7.324-0.66-7.517c-0.074-0.714,0.008-0.93-0.698-1.13   c-2.357-0.671-6.121-0.136-8.412,0.689c-1.456,0.524-2.834,1.257-4.089,2.161c-0.28,0.238-0.63,0.627-0.656,1.029l-0.001,0.039   l0.004,0.05l0.022,14.019l-0.282,30.174c0,0-0.025,0.17-0.015,0.355c0.01,0.193,0.052,0.361,0.128,0.465   c0.392,0.305,1.377,0.377,2.114,0.938c0.673,0.516,0.925,1.143,1.347,1.83c0.179,0.504,0.761,0.432,1.155,0.283   c0,0,12.471-3.805,13.073-4.018c0.3-0.104,0.411-0.318,0.358-0.605c0,0-1.808-20.609-3.013-34.439   C34.21,54.75,34.125,52.314,35.628,51.203z M25.621,49.671c-0.535-1.262,0.054-2.716,1.316-3.25   c1.259-0.534,2.715,0.055,3.25,1.316c0.534,1.261-0.056,2.716-1.317,3.25C27.609,51.52,26.154,50.932,25.621,49.671z    M30.482,89.988c-1.261,0.533-2.716-0.055-3.25-1.318c-0.533-1.258,0.056-2.713,1.317-3.248c1.26-0.533,2.715,0.055,3.25,1.316   C32.332,88,31.743,89.455,30.482,89.988z"/>
	<path fill="#000000" d="M28.804,86.027c-0.824,0.348-1.258,1.23-1.068,2.074l3.302-1.398C30.564,85.982,29.627,85.68,28.804,86.027   z"/>
</g>
</svg>