<svg xmlns="http://www.w3.org/2000/svg" xmlns:xlink="http://www.w3.org/1999/xlink" version="1.1" id="Layer_1" x="0px" y="0px" width="100px" height="100px" viewBox="0 0 100 100" enable-background="new 0 0 100 100" xml:space="preserve">
<g>
	<path d="M37.646,62.677c-0.879,1.449-2.49,2.076-3.601,1.4L15.678,52.912c-1.111-0.675-1.3-2.397-0.421-3.846l0,0   c0.873-1.45,2.486-2.074,3.601-1.4l18.361,11.166C38.333,59.504,38.522,61.229,37.646,62.677L37.646,62.677z"/>
	<path d="M55.697,30.778c-0.921,1.423-2.552,1.999-3.642,1.292L34.029,20.363c-1.09-0.708-1.231-2.435-0.311-3.857l0,0   c0.921-1.421,2.549-2,3.642-1.292L55.387,26.92C56.477,27.629,56.614,29.357,55.697,30.778L55.697,30.778z"/>
	<path d="M47.593,32.256l-11.478-7.199c-3.125-1.961-7.249-1.016-9.215,2.11l-6.463,10.317c-1.966,3.128-1.018,7.251,2.107,9.21   l11.481,7.2c3.125,1.962,7.249,1.017,9.211-2.111l6.466-10.315C51.666,38.341,50.717,34.218,47.593,32.256z M25.334,41.691   c-0.469,0.743-1.456,0.973-2.2,0.502c-0.752-0.469-0.973-1.452-0.503-2.202l7.801-12.439c0.469-0.747,1.452-0.973,2.2-0.503   c0.745,0.467,0.973,1.454,0.504,2.2L25.334,41.691z"/>
	<path d="M93.213,66.426l-1.404-0.852c-1.21-0.738-2.565-0.993-3.858-0.859L52.004,42.824c-2.642-1.608-6.032-0.864-7.577,1.666   c-1.538,2.53-0.645,5.887,2,7.494l36.143,22.012c0.018,0.01,0.042,0.014,0.062,0.027c0.497,1.062,1.307,2.007,2.4,2.676   l1.403,0.855c2.855,1.738,6.521,0.932,8.185-1.8l0.748-1.231C97.034,71.792,96.064,68.168,93.213,66.426z"/>
	<g>
		<path d="M10.381,72.679h-0.262c-3.687,0-6.68,2.99-6.68,6.684v4.904h10.56L10.381,72.679z"/>
		<path d="M41.844,72.679H11.512l3.621,11.588h33.394v-4.904C48.527,75.669,45.537,72.679,41.844,72.679z"/>
	</g>
</g>
</svg>