<svg xmlns:x="http://ns.adobe.com/Extensibility/1.0/" xmlns:i="http://ns.adobe.com/AdobeIllustrator/10.0/" xmlns:graph="http://ns.adobe.com/Graphs/1.0/" xmlns="http://www.w3.org/2000/svg" xmlns:xlink="http://www.w3.org/1999/xlink" xmlns:a="http://ns.adobe.com/AdobeSVGViewerExtensions/3.0/" version="1.0" id="Layer_1" x="0px" y="0px" width="100px" height="100px" viewBox="0 0 100 100" enable-background="new 0 0 100 100" xml:space="preserve">
<g>
	<path d="M97.943,37.106c-1.031-1.671-3.146-2.237-4.275-2.237c-1.131,0-1.377,1.205-1.377,1.205v4.153c0,0,0.002,0.007,0.002,0.018   l-1.199,0.597c-0.91-4.512-2.02-9.807-2.998-13.875c-2.297-9.542-3.865-12.729-5.523-12.729h-2.594   c-0.51,0-0.953,0.172-1.225,0.434c0,0-23.715-0.433-28.721-0.434c-0.004,0-0.006,0-0.01,0c-0.008,0-0.018,0-0.026,0   c-0.004,0-0.006,0-0.009,0c-5.007,0-28.72,0.434-28.72,0.434c-0.271-0.262-0.718-0.434-1.226-0.434h-2.595   c-1.658,0-3.228,3.187-5.523,12.729c-0.978,4.068-2.088,9.363-2.998,13.875l-1.201-0.597c0.002-0.011,0.003-0.018,0.003-0.018   v-4.153c0,0-0.246-1.205-1.376-1.205c-1.13,0-3.244,0.565-4.276,2.237s-1.057,2.825-1.057,3.98c0,1.156,0.614,3.612,2.752,4.375   c2.138,0.762,3.146,0.639,3.146-0.024c0-0.024,0-0.054,0.003-0.087l1.065,0.224c-0.019,0.091-0.037,0.188-0.054,0.275   c2.195,1.263,5.36,2.494,9.369,2.494h32.685h32.728c4.01,0,7.174-1.231,9.371-2.494c-0.02-0.087-0.037-0.184-0.055-0.275   l1.064-0.224c0.004,0.033,0.004,0.063,0.004,0.088c0,0.663,1.006,0.786,3.145,0.024C98.385,44.699,99,42.243,99,41.087   C99,39.932,98.977,38.778,97.943,37.106z M17.186,47.303c-1.612,0-2.918-1.306-2.918-2.917c0-1.612,1.307-2.918,2.918-2.918   c1.611,0,2.917,1.306,2.917,2.918C20.103,45.997,18.797,47.303,17.186,47.303z M50.01,40.521   c-5.818-0.038-14.405-0.176-22.979-0.613c-9.131-0.464-11.542-0.719-12.12-3.63c-1.33-6.7,2.659-17.642,2.659-17.642   s10.845-1.022,19.174-1.233c3.876-0.098,8.94-0.105,13.246-0.083v0c0.007,0,0.015,0,0.021,0c0.008,0,0.016,0,0.023,0v0   c4.305-0.021,9.369-0.015,13.246,0.083c8.326,0.211,19.172,1.233,19.172,1.233s3.988,10.942,2.658,17.642   c-0.576,2.911-2.988,3.166-12.119,3.63C64.414,40.346,55.828,40.484,50.01,40.521z M82.834,47.303   c-1.609,0-2.914-1.306-2.914-2.917c0-1.612,1.305-2.918,2.914-2.918c1.613,0,2.922,1.306,2.922,2.918   C85.756,45.997,84.447,47.303,82.834,47.303z"/>
	<path d="M77.955,57.33c0.203,0,0.402,0.014,0.596,0.035c1.26-1.996,3.355-3.244,5.551-4.533c0.961-0.562,1.955-1.146,2.885-1.805   c0.693-0.488,1.078-1.455,1.256-2.672c-1.609,0.467-3.455,0.774-5.525,0.774H50.033h-0.044H17.304   c-2.069,0-3.915-0.307-5.527-0.774c0.18,1.217,0.566,2.184,1.257,2.672c0.931,0.658,1.925,1.24,2.887,1.805   c2.194,1.289,4.29,2.539,5.55,4.535c0.205-0.023,0.414-0.037,0.626-0.037c2.496,0,4.52,1.574,4.52,3.516   c0,0.305-0.055,0.598-0.146,0.875c1.511,0,45.825,0,47.112,0c-0.092-0.277-0.146-0.57-0.146-0.875   C73.436,58.904,75.461,57.33,77.955,57.33z"/>
	<path d="M92.289,46.666c-0.922,0.516-2.002,1.017-3.23,1.433c-0.184,1.578-0.658,2.893-1.619,3.571   c-0.955,0.678-1.963,1.27-2.941,1.842c-1.988,1.168-3.895,2.301-5.092,4.008c1.783,0.469,3.068,1.781,3.068,3.326   c0,0.334-0.064,0.654-0.174,0.959c5.41,0.199,7.365,0.842,8.064,1.242l-0.15,0.857c-0.051-0.029-0.098-0.066-0.133-0.119   c-0.008-0.01-1.174-0.977-8.197-1.205c-0.775,1.062-2.244,1.781-3.93,1.781c-1.705,0-3.191-0.734-3.959-1.82   c-3.283,0.006-6.91-0.002-6.91-0.002c-0.193,1.18-0.887,2.059-1.715,2.059H50.033h-0.044H34.65c-0.829,0-1.522-0.879-1.717-2.059   c0,0-3.603,0.008-6.876,0.002c-0.77,1.086-2.253,1.82-3.96,1.82c-1.686,0-3.154-0.719-3.931-1.783   c-7.051,0.229-8.219,1.195-8.227,1.207c-0.036,0.053-0.083,0.09-0.134,0.119l-0.15-0.857c0.701-0.402,2.661-1.043,8.096-1.244   c-0.11-0.305-0.174-0.623-0.174-0.957c0-1.539,1.274-2.846,3.044-3.318c-1.198-1.711-3.105-2.846-5.099-4.016   c-0.975-0.572-1.984-1.164-2.942-1.842c-0.958-0.678-1.434-1.995-1.618-3.571c-1.229-0.417-2.308-0.917-3.229-1.433   c-3.264,4.383-2.818,16.61-0.154,25.125c-0.004,0.049-0.013,0.096-0.013,0.15v18.012c0,1.465,2.113,2.654,4.718,2.654h0.794   c2.606,0,4.718-1.189,4.718-2.654v-5.785h32.192h0.044h32.191v5.785c0,1.465,2.111,2.654,4.719,2.654h0.795   c2.604,0,4.715-1.189,4.715-2.654V71.941c0-0.055-0.006-0.102-0.01-0.15C95.107,63.275,95.553,51.049,92.289,46.666z    M21.655,77.801c-1.477,0-2.675-1.195-2.675-2.676c0-1.475,1.198-2.672,2.675-2.672c1.478,0,2.674,1.197,2.674,2.672   C24.33,76.605,23.133,77.801,21.655,77.801z M71.207,74.771c-0.701,2.908-2.924,4.512-5.414,4.512h-15.76h-0.044H34.229   c-2.492,0-4.712-1.604-5.414-4.512c0,0-1.754-4.512,4.511-4.512h16.662h0.044h16.66C72.959,70.26,71.207,74.771,71.207,74.771z    M78.363,77.801c-1.475,0-2.672-1.195-2.672-2.676c0-1.475,1.197-2.672,2.672-2.672c1.48,0,2.678,1.197,2.678,2.672   C81.041,76.605,79.844,77.801,78.363,77.801z"/>
</g>
</svg>